<svg width="219" height="126" viewBox="0 0 219 126" fill="none" xmlns="http://www.w3.org/2000/svg">
<path d="M50.5257 124.12V126.62H53.0257V124.12H50.5257ZM11.7085 38.6181H14.2085V36.1181H11.7085V38.6181ZM0.729049 38.6181H-1.77095V41.1181H0.729049V38.6181ZM0.729049 23.7483V21.2483H-1.77095V23.7483H0.729049ZM11.7085 23.7483V26.2483H14.2085V23.7483H11.7085ZM11.7085 3.51837V1.01837H9.20851V3.51837H11.7085ZM36.3475 3.51837H38.8475V1.01837H36.3475V3.51837ZM36.3475 23.7483H33.8475V26.2483H36.3475V23.7483ZM49.6611 23.7483H52.1611V21.2483H49.6611V23.7483ZM49.6611 38.6181V41.1181H52.1611V38.6181H49.6611ZM36.3475 38.6181V36.1181H33.8475V38.6181H36.3475ZM38.941 105.619L37.6548 107.762L37.6964 107.787L37.739 107.811L38.941 105.619ZM50.5257 107.088H53.0257V104.588H50.5257V107.088ZM50.5257 121.62H34.9642V126.62H50.5257V121.62ZM34.9642 121.62C29.4978 121.62 25.283 121.206 22.2377 120.441C19.1154 119.657 17.6611 118.615 17.0849 117.735L12.9026 120.475C14.5164 122.939 17.4856 124.403 21.0201 125.291C24.6317 126.198 29.3071 126.62 34.9642 126.62V121.62ZM17.0849 117.735C16.2603 116.477 15.5161 114.421 14.9943 111.359C14.4784 108.331 14.2085 104.498 14.2085 99.8264H9.20851C9.20851 104.664 9.48612 108.799 10.0653 112.198C10.6386 115.563 11.537 118.391 12.9026 120.475L17.0849 117.735ZM14.2085 99.8264V38.6181H9.20851V99.8264H14.2085ZM11.7085 36.1181H0.729049V41.1181H11.7085V36.1181ZM3.22905 38.6181V23.7483H-1.77095V38.6181H3.22905ZM0.729049 26.2483H11.7085V21.2483H0.729049V26.2483ZM14.2085 23.7483V3.51837H9.20851V23.7483H14.2085ZM11.7085 6.01837H36.3475V1.01837H11.7085V6.01837ZM33.8475 3.51837V23.7483H38.8475V3.51837H33.8475ZM36.3475 26.2483H49.6611V21.2483H36.3475V26.2483ZM47.1611 23.7483V38.6181H52.1611V23.7483H47.1611ZM49.6611 36.1181H36.3475V41.1181H49.6611V36.1181ZM33.8475 38.6181V99.6535H38.8475V38.6181H33.8475ZM33.8475 99.6535C33.8475 103.032 34.8603 106.086 37.6548 107.762L40.2273 103.475C39.5637 103.077 38.8475 102.154 38.8475 99.6535H33.8475ZM37.739 107.811C39.0563 108.533 40.8513 108.946 42.8626 109.201C44.9367 109.464 47.5007 109.588 50.5257 109.588V104.588C47.6142 104.588 45.2793 104.468 43.4919 104.241C41.6416 104.006 40.6125 103.684 40.1431 103.427L37.739 107.811ZM48.0257 107.088V124.12H53.0257V107.088H48.0257ZM113.29 124.12V126.62H115.79V124.12H113.29ZM91.5041 124.12H89.0041V126.62H91.5041V124.12ZM91.5041 120.229H94.0041L89.2903 119.068L91.5041 120.229ZM60.3813 77.8675L58.5982 76.1152L58.5904 76.1231L58.5828 76.131L60.3813 77.8675ZM80.0924 65.3319L78.9654 63.1003L78.9588 63.1037L80.0924 65.3319ZM79.8331 57.0325L77.3377 57.1852L77.3393 57.2106L77.3413 57.2359L79.8331 57.0325ZM80.1789 63.4299V65.9299H82.6789V63.4299H80.1789ZM56.4044 63.4299H53.9044V65.9299H56.4044V63.4299ZM88.6512 79.5101H91.1512V76.324L88.0565 77.0818L88.6512 79.5101ZM113.29 121.62H91.5041V126.62H113.29V121.62ZM94.0041 124.12V120.229H89.0041V124.12H94.0041ZM89.2903 119.068C88.7709 120.058 87.6464 121.056 85.3751 121.813C83.0952 122.573 79.9001 123.003 75.6833 123.003V128.003C80.1695 128.003 83.9626 127.554 86.9563 126.556C89.9586 125.555 92.3931 123.916 93.718 121.391L89.2903 119.068ZM75.6833 123.003C69.2257 123.003 64.843 121.73 62.1147 119.599C59.5039 117.56 58.0399 114.44 58.0399 109.768H53.0399C53.0399 115.586 54.9332 120.334 59.0368 123.539C63.0231 126.653 68.712 128.003 75.6833 128.003V123.003ZM58.0399 109.768V89.625H53.0399V109.768H58.0399ZM58.0399 89.625C58.0399 85.8012 59.3854 82.4982 62.1798 79.604L58.5828 76.131C54.922 79.9225 53.0399 84.4578 53.0399 89.625H58.0399ZM62.1643 79.6198C65.1357 76.5963 71.3729 72.5731 81.2261 67.5601L78.9588 63.1037C69.1008 68.1192 62.1972 72.4531 58.5982 76.1152L62.1643 79.6198ZM81.2195 67.5634C84.1324 66.0923 86.4539 64.7023 88.0828 63.386C88.8973 62.7278 89.6206 62.0232 90.1575 61.264C90.6895 60.5117 91.1512 59.5437 91.1512 58.4157H86.1512C86.1512 58.1522 86.2563 58.1208 86.0751 58.3771C85.8987 58.6265 85.5522 59.0025 84.9402 59.497C83.7162 60.4862 81.7583 61.6898 78.9654 63.1003L81.2195 67.5634ZM91.1512 58.4157V43.5459H86.1512V58.4157H91.1512ZM91.1512 43.5459C91.1512 41.6027 90.7417 39.6787 89.488 38.2203C88.1721 36.6896 86.3194 36.1181 84.415 36.1181V41.1181C85.3348 41.1181 85.6002 41.3679 85.6964 41.4797C85.8547 41.6639 86.1512 42.2038 86.1512 43.5459H91.1512ZM84.415 36.1181C83.0436 36.1181 81.7699 36.5605 80.7033 37.443C79.6801 38.2895 78.9687 39.4383 78.4652 40.6881C77.4761 43.1431 77.0737 46.5355 77.0737 50.635H82.0737C82.0737 46.7232 82.4782 44.1072 83.1029 42.5565C83.4063 41.8035 83.7035 41.4502 83.8906 41.2953C84.0344 41.1764 84.1727 41.1181 84.415 41.1181V36.1181ZM77.0737 50.635C77.0737 52.1546 77.1641 54.3487 77.3377 57.1852L82.3284 56.8797C82.1562 54.0679 82.0737 51.9971 82.0737 50.635H77.0737ZM77.3413 57.2359C77.5706 60.0436 77.6789 62.094 77.6789 63.4299H82.6789C82.6789 61.8841 82.5566 59.6695 82.3248 56.829L77.3413 57.2359ZM80.1789 60.9299H56.4044V65.9299H80.1789V60.9299ZM58.9044 63.4299V43.373H53.9044V63.4299H58.9044ZM58.9044 43.373C58.9044 37.2912 61.0516 33.0418 65.1744 30.1923C69.4641 27.2273 76.211 25.5566 85.7983 25.5566V20.5566C75.7897 20.5566 67.8396 22.272 62.3314 26.0791C56.6562 30.0017 53.9044 35.9105 53.9044 43.373H58.9044ZM85.7983 25.5566C94.7111 25.5566 100.937 27.2854 104.891 30.3322C108.723 33.2839 110.79 37.7624 110.79 44.2375H115.79C115.79 36.592 113.276 30.4801 107.943 26.3714C102.734 22.358 95.2134 20.5566 85.7983 20.5566V25.5566ZM110.79 44.2375V124.12H115.79V44.2375H110.79ZM91.1512 105.359V79.5101H86.1512V105.359H91.1512ZM88.0565 77.0818C85.0267 77.8239 82.4655 78.9382 80.6266 80.5894C78.704 82.3158 77.6789 84.5408 77.6789 87.1179H82.6789C82.6789 86.0064 83.0658 85.1191 83.9673 84.3096C84.9526 83.4248 86.6275 82.5796 89.2459 81.9383L88.0565 77.0818ZM77.6789 87.1179V105.359H82.6789V87.1179H77.6789ZM77.6789 105.359C77.6789 107.249 78.132 109.129 79.4797 110.529C80.8447 111.948 82.7079 112.441 84.5879 112.441V107.441C83.5286 107.441 83.1873 107.171 83.0826 107.062C82.9606 106.936 82.6789 106.525 82.6789 105.359H77.6789ZM84.5879 112.441C86.4108 112.441 88.212 111.914 89.5059 110.455C90.749 109.053 91.1512 107.203 91.1512 105.359H86.1512C86.1512 106.57 85.8762 107.012 85.7649 107.137C85.7044 107.205 85.474 107.441 84.5879 107.441V112.441ZM143.981 124.12V126.62H146.481V124.12H143.981ZM119.342 124.12H116.842V126.62H119.342V124.12ZM119.342 0.146729V-2.35327H116.842V0.146729H119.342ZM143.981 0.146729H146.481V-2.35327H143.981V0.146729ZM143.981 121.62H119.342V126.62H143.981V121.62ZM121.842 124.12V0.146729H116.842V124.12H121.842ZM119.342 2.64673H143.981V-2.35327H119.342V2.64673ZM141.481 0.146729V124.12H146.481V0.146729H141.481ZM218.416 124.12V126.62H222.187L220.719 123.146L218.416 124.12ZM189.455 124.12L187.147 125.081L187.788 126.62H189.455V124.12ZM174.326 87.8095L176.633 86.848L171.826 87.8095H174.326ZM174.326 124.12V126.62H176.826V124.12H174.326ZM149.773 124.12H147.273V126.62H149.773V124.12ZM149.773 0.146729V-2.35327H147.273V0.146729H149.773ZM174.326 0.146729H176.826V-2.35327H174.326V0.146729ZM174.326 55.7357H171.826L176.651 56.6533L174.326 55.7357ZM186.948 23.7483V21.2483H185.247L184.622 22.8306L186.948 23.7483ZM212.451 23.7483L214.766 24.6916L216.169 21.2483H212.451V23.7483ZM194.555 67.6661L192.24 66.7227L191.849 67.6836L192.253 68.6394L194.555 67.6661ZM218.416 121.62H189.455V126.62H218.416V121.62ZM191.762 123.158L176.633 86.848L172.018 88.7711L187.147 125.081L191.762 123.158ZM171.826 87.8095V124.12H176.826V87.8095H171.826ZM174.326 121.62H149.773V126.62H174.326V121.62ZM152.273 124.12V0.146729H147.273V124.12H152.273ZM149.773 2.64673H174.326V-2.35327H149.773V2.64673ZM171.826 0.146729V55.7357H176.826V0.146729H171.826ZM176.651 56.6533L189.273 24.6659L184.622 22.8306L172 54.818L176.651 56.6533ZM186.948 26.2483H212.451V21.2483H186.948V26.2483ZM210.136 22.8049L192.24 66.7227L196.871 68.6095L214.766 24.6916L210.136 22.8049ZM192.253 68.6394L216.114 125.093L220.719 123.146L196.858 66.6928L192.253 68.6394Z" fill="#FFD54F"/>
</svg>
