<svg width="315" height="315" viewBox="0 0 315 315" fill="none" xmlns="http://www.w3.org/2000/svg">
<circle cx="157.5" cy="157.5" r="156.574" stroke="#FFD54D" stroke-width="1.85294"/>
<path d="M157.5 109.941C154.06 109.941 150.761 111.308 148.328 113.74C145.896 116.173 144.529 119.472 144.529 122.912V157.5C144.529 160.94 145.896 164.239 148.328 166.672C150.761 169.104 154.06 170.471 157.5 170.471C160.94 170.471 164.239 169.104 166.672 166.672C169.104 164.239 170.471 160.94 170.471 157.5V122.912C170.471 119.472 169.104 116.173 166.672 113.74C164.239 111.308 160.94 109.941 157.5 109.941V109.941Z" stroke="#FFD54F" stroke-width="2.77941" stroke-linecap="round" stroke-linejoin="round"/>
<path d="M187.765 148.853V157.5C187.765 165.527 184.576 173.225 178.9 178.9C173.225 184.576 165.527 187.765 157.5 187.765C149.473 187.765 141.775 184.576 136.1 178.9C130.424 173.225 127.235 165.527 127.235 157.5V148.853" stroke="#FFD54F" stroke-width="2.77941" stroke-linecap="round" stroke-linejoin="round"/>
<path d="M157.5 187.765V205.059" stroke="#FFD54F" stroke-width="2.77941" stroke-linecap="round" stroke-linejoin="round"/>
<path d="M140.206 205.059H174.794" stroke="#FFD54F" stroke-width="2.77941" stroke-linecap="round" stroke-linejoin="round"/>
</svg>
