<svg width="27" height="23" viewBox="0 0 27 23" fill="none" xmlns="http://www.w3.org/2000/svg">
<path d="M18 21.625V19.375C18 18.1815 17.5259 17.0369 16.682 16.193C15.8381 15.3491 14.6935 14.875 13.5 14.875H5.625C4.43153 14.875 3.28693 15.3491 2.44302 16.193C1.59911 17.0369 1.125 18.1815 1.125 19.375V21.625" stroke="black" stroke-width="1.5" stroke-linecap="round" stroke-linejoin="round"/>
<path d="M9.5625 10.375C12.0478 10.375 14.0625 8.36028 14.0625 5.875C14.0625 3.38972 12.0478 1.375 9.5625 1.375C7.07722 1.375 5.0625 3.38972 5.0625 5.875C5.0625 8.36028 7.07722 10.375 9.5625 10.375Z" stroke="black" stroke-width="1.5" stroke-linecap="round" stroke-linejoin="round"/>
<path d="M20.25 7L25.875 12.625" stroke="black" stroke-width="1.5" stroke-linecap="round" stroke-linejoin="round"/>
<path d="M25.875 7L20.25 12.625" stroke="black" stroke-width="1.5" stroke-linecap="round" stroke-linejoin="round"/>
</svg>
