<svg width="26" height="26" viewBox="0 0 26 26" fill="none" xmlns="http://www.w3.org/2000/svg">
<path d="M24.1312 20.3157C24.1312 20.8555 23.9168 21.3732 23.535 21.755C23.1533 22.1367 22.6356 22.3511 22.0957 22.3511H3.7766C3.23676 22.3511 2.71903 22.1367 2.33731 21.755C1.95558 21.3732 1.74113 20.8555 1.74113 20.3157V9.12063C1.74113 8.5808 1.95558 8.06307 2.33731 7.68135C2.71903 7.29962 3.23676 7.08517 3.7766 7.08517H7.84752L9.88298 4.03198H15.9894L18.0248 7.08517H22.0957C22.6356 7.08517 23.1533 7.29962 23.535 7.68135C23.9168 8.06307 24.1312 8.5808 24.1312 9.12063V20.3157Z" stroke="black" stroke-width="1.30851" stroke-linecap="round" stroke-linejoin="round"/>
<path d="M12.9362 18.28C15.1845 18.28 17.0071 16.4574 17.0071 14.2091C17.0071 11.9608 15.1845 10.1382 12.9362 10.1382C10.6879 10.1382 8.86525 11.9608 8.86525 14.2091C8.86525 16.4574 10.6879 18.28 12.9362 18.28Z" stroke="black" stroke-width="1.30851" stroke-linecap="round" stroke-linejoin="round"/>
</svg>
