<svg width="50" height="49" viewBox="0 0 50 49" fill="none" xmlns="http://www.w3.org/2000/svg">
<path d="M3.95801 46.1025C3.27441 46.1025 2.70475 45.9886 2.24902 45.7607C1.79329 45.5329 1.4515 45.1911 1.22363 44.7354C1.00033 44.2796 0.888672 43.7077 0.888672 43.0195V41.8506C0.888672 41.1715 1.0026 40.6064 1.23047 40.1553C1.45833 39.7041 1.79785 39.3669 2.24902 39.1436C2.70475 38.9157 3.27441 38.8018 3.95801 38.8018C4.34538 38.8018 4.69857 38.8451 5.01758 38.9316C5.33659 39.0137 5.62142 39.139 5.87207 39.3076C6.12272 39.4717 6.34147 39.6813 6.52832 39.9365L5.79688 40.5859C5.55534 40.2943 5.2819 40.0778 4.97656 39.9365C4.67578 39.7907 4.3431 39.7178 3.97852 39.7178C3.27214 39.7178 2.74349 39.8955 2.39258 40.251C2.04622 40.6019 1.87305 41.1351 1.87305 41.8506V43.0195C1.87305 43.7441 2.0485 44.2865 2.39941 44.6465C2.75033 45.0065 3.27669 45.1865 3.97852 45.1865C4.36589 45.1865 4.7168 45.1182 5.03125 44.9814C5.35026 44.8447 5.63737 44.6374 5.89258 44.3594L6.52832 44.9883C6.34147 45.2389 6.12272 45.4463 5.87207 45.6104C5.62142 45.7744 5.33659 45.8975 5.01758 45.9795C4.69857 46.0615 4.34538 46.1025 3.95801 46.1025ZM8.06641 36.0605H9.05078V46H8.06641V36.0605ZM12.7832 41.7002C12.7832 41.0713 12.6169 40.5837 12.2842 40.2373C11.9561 39.891 11.4912 39.7178 10.8896 39.7178C10.3063 39.7178 9.85286 39.8727 9.5293 40.1826C9.21029 40.488 9.05078 40.9232 9.05078 41.4883L8.90723 40.1211C9.15788 39.6562 9.49056 39.3213 9.90527 39.1162C10.32 38.9066 10.8008 38.8018 11.3477 38.8018C12.1178 38.8018 12.7126 39.0547 13.1318 39.5605C13.5557 40.0618 13.7676 40.7728 13.7676 41.6934V46H12.7832V41.7002ZM20.2344 41.502C20.2344 40.9277 20.0794 40.4834 19.7695 40.1689C19.4642 39.8499 19.029 39.6904 18.4639 39.6904C18.1266 39.6904 17.7962 39.7451 17.4727 39.8545C17.1491 39.9639 16.862 40.1188 16.6113 40.3193L15.8936 39.8271C16.1624 39.5036 16.5156 39.2529 16.9531 39.0752C17.3952 38.8929 17.8851 38.8018 18.4229 38.8018C19.0107 38.8018 19.5143 38.9066 19.9336 39.1162C20.3529 39.3213 20.6719 39.6221 20.8906 40.0186C21.1094 40.4105 21.2188 40.8844 21.2188 41.4404V46H20.2344V41.502ZM18.1562 46.1025C17.3268 46.1025 16.6842 45.9111 16.2285 45.5283C15.7728 45.1455 15.5449 44.6055 15.5449 43.9082C15.5449 43.2383 15.7523 42.721 16.167 42.3564C16.5863 41.9873 17.1764 41.8027 17.9375 41.8027H20.2959L20.3916 42.7188H17.9443C17.4886 42.7188 17.1354 42.8236 16.8848 43.0332C16.6387 43.2383 16.5156 43.5299 16.5156 43.9082C16.5156 44.3092 16.6706 44.6214 16.9805 44.8447C17.2949 45.0635 17.737 45.1729 18.3066 45.1729C18.9173 45.1729 19.3913 45.1113 19.7285 44.9883C20.0658 44.8652 20.2344 44.6921 20.2344 44.4688L20.3779 45.3984C20.2367 45.5443 20.0544 45.6719 19.8311 45.7812C19.6123 45.8861 19.3594 45.9658 19.0723 46.0205C18.7897 46.0752 18.4844 46.1025 18.1562 46.1025ZM23.3379 38.9043H24.3223V46H23.3379V38.9043ZM28.0547 41.7002C28.0547 41.0713 27.8883 40.5837 27.5557 40.2373C27.2275 39.891 26.7627 39.7178 26.1611 39.7178C25.5778 39.7178 25.1243 39.8727 24.8008 40.1826C24.4818 40.488 24.3223 40.9232 24.3223 41.4883L24.1787 40.1211C24.4294 39.6562 24.762 39.3213 25.1768 39.1162C25.5915 38.9066 26.0723 38.8018 26.6191 38.8018C27.3893 38.8018 27.984 39.0547 28.4033 39.5605C28.8271 40.0618 29.0391 40.7728 29.0391 41.6934V46H28.0547V41.7002ZM31.1582 38.9043H32.1426V46H31.1582V38.9043ZM35.875 41.7002C35.875 41.0713 35.7087 40.5837 35.376 40.2373C35.0479 39.891 34.583 39.7178 33.9814 39.7178C33.3981 39.7178 32.9447 39.8727 32.6211 40.1826C32.3021 40.488 32.1426 40.9232 32.1426 41.4883L31.999 40.1211C32.2497 39.6562 32.5824 39.3213 32.9971 39.1162C33.4118 38.9066 33.8926 38.8018 34.4395 38.8018C35.2096 38.8018 35.8044 39.0547 36.2236 39.5605C36.6475 40.0618 36.8594 40.7728 36.8594 41.6934V46H35.875V41.7002ZM41.8838 46.1025C41.2275 46.1025 40.667 45.9795 40.2021 45.7334C39.7373 45.4827 39.3818 45.1204 39.1357 44.6465C38.8942 44.168 38.7734 43.5938 38.7734 42.9238V42.124C38.7734 41.4222 38.8896 40.8229 39.1221 40.3262C39.359 39.8294 39.7008 39.4512 40.1475 39.1914C40.5941 38.9316 41.1318 38.8018 41.7607 38.8018C42.3532 38.8018 42.859 38.9294 43.2783 39.1846C43.6976 39.4398 44.0166 39.8135 44.2354 40.3057C44.4587 40.7933 44.5703 41.3812 44.5703 42.0693V42.8828H39.4434V41.9941H43.6543V41.9258C43.6543 41.224 43.488 40.6816 43.1553 40.2988C42.8271 39.9115 42.3623 39.7178 41.7607 39.7178C41.0999 39.7178 40.5895 39.9206 40.2295 40.3262C39.8695 40.7318 39.6895 41.306 39.6895 42.0488V42.9512C39.6895 43.6621 39.8809 44.2135 40.2637 44.6055C40.6465 44.9928 41.1865 45.1865 41.8838 45.1865C42.2119 45.1865 42.5355 45.1182 42.8545 44.9814C43.1781 44.8447 43.4652 44.651 43.7158 44.4004L44.3857 45.043C44.0394 45.3802 43.6475 45.6423 43.21 45.8291C42.7725 46.0114 42.3304 46.1025 41.8838 46.1025ZM47.4688 44.1338C47.4688 44.4346 47.5417 44.6693 47.6875 44.8379C47.8379 45.002 48.0452 45.084 48.3096 45.084H48.9658V46H48.1455C47.6169 46 47.2067 45.8359 46.915 45.5078C46.6279 45.1797 46.4844 44.7171 46.4844 44.1201V36.0605H47.4688V44.1338Z" fill="black"/>
<path d="M33 28V25C33 23.4087 32.3679 21.8826 31.2426 20.7574C30.1174 19.6321 28.5913 19 27 19H15C13.4087 19 11.8826 19.6321 10.7574 20.7574C9.63214 21.8826 9 23.4087 9 25V28" stroke="black" stroke-width="2" stroke-linecap="round" stroke-linejoin="round"/>
<path d="M21 13C24.3137 13 27 10.3137 27 7C27 3.68629 24.3137 1 21 1C17.6863 1 15 3.68629 15 7C15 10.3137 17.6863 13 21 13Z" stroke="black" stroke-width="2" stroke-linecap="round" stroke-linejoin="round"/>
<path d="M42 28V25C41.999 23.6706 41.5565 22.3792 40.742 21.3285C39.9276 20.2778 38.7872 19.5274 37.5 19.195" stroke="black" stroke-width="2" stroke-linecap="round" stroke-linejoin="round"/>
<path d="M31.5 1.19501C32.7906 1.52546 33.9346 2.27606 34.7515 3.32847C35.5684 4.38089 36.0118 5.67525 36.0118 7.00751C36.0118 8.33976 35.5684 9.63413 34.7515 10.6865C33.9346 11.739 32.7906 12.4896 31.5 12.82" stroke="black" stroke-width="2" stroke-linecap="round" stroke-linejoin="round"/>
</svg>
