<svg width="33" height="29" viewBox="0 0 33 29" fill="none" xmlns="http://www.w3.org/2000/svg">
<path d="M25 28V25C25 23.4087 24.3679 21.8826 23.2426 20.7574C22.1174 19.6321 20.5913 19 19 19H7C5.4087 19 3.88258 19.6321 2.75736 20.7574C1.63214 21.8826 1 23.4087 1 25V28" stroke="black" stroke-linecap="round" stroke-linejoin="round"/>
<path d="M13 13C16.3137 13 19 10.3137 19 7C19 3.68629 16.3137 1 13 1C9.68629 1 7 3.68629 7 7C7 10.3137 9.68629 13 13 13Z" stroke="black" stroke-linecap="round" stroke-linejoin="round"/>
<path d="M32 26.0001V23.0001C31.999 21.6707 31.5565 20.3792 30.742 19.3285C29.9276 18.2779 28.7872 17.5274 27.5 17.1951" stroke="black" stroke-linecap="round" stroke-linejoin="round"/>
<path d="M23.5 1.19507C24.7906 1.52552 25.9346 2.27612 26.7515 3.32853C27.5684 4.38095 28.0118 5.67531 28.0118 7.00757C28.0118 8.33982 27.5684 9.63419 26.7515 10.6866C25.9346 11.739 24.7906 12.4896 23.5 12.8201" stroke="black" stroke-linecap="round" stroke-linejoin="round"/>
</svg>
