<svg width="53" height="83" viewBox="0 0 53 83" fill="none" xmlns="http://www.w3.org/2000/svg">
<path d="M9.18305 78.0009C7.94246 78.0009 6.90863 77.7941 6.08156 77.3806C5.2545 76.9671 4.6342 76.3468 4.22067 75.5197C3.81541 74.6927 3.61277 73.6547 3.61277 72.4058V70.2844C3.61277 69.0521 3.81954 68.0265 4.23307 67.2077C4.6466 66.3889 5.26277 65.7769 6.08156 65.3716C6.90863 64.9581 7.94246 64.7513 9.18305 64.7513C9.88606 64.7513 10.527 64.8299 11.106 64.9871C11.6849 65.1359 12.2018 65.3634 12.6567 65.6694C13.1116 65.9671 13.5086 66.3476 13.8477 66.8107L12.5203 67.9893C12.0819 67.46 11.5857 67.0671 11.0315 66.8107C10.4857 66.5461 9.88192 66.4137 9.22027 66.4137C7.93832 66.4137 6.97893 66.7363 6.34209 67.3814C5.71352 68.0182 5.39923 68.9859 5.39923 70.2844V72.4058C5.39923 73.7209 5.71765 74.7051 6.35449 75.3584C6.99133 76.0118 7.94659 76.3385 9.22027 76.3385C9.92327 76.3385 10.5601 76.2145 11.1308 75.9663C11.7097 75.7182 12.2308 75.3419 12.6939 74.8374L13.8477 75.9787C13.5086 76.4336 13.1116 76.8099 12.6567 77.1077C12.2018 77.4054 11.6849 77.6287 11.106 77.7776C10.527 77.9265 9.88606 78.0009 9.18305 78.0009ZM16.639 59.7766H18.4255V77.8148H16.639V59.7766ZM25.1991 70.0115C25.1991 68.8701 24.8973 67.9852 24.2935 67.3566C23.698 66.728 22.8544 66.4137 21.7627 66.4137C20.7041 66.4137 19.8811 66.6949 19.2939 67.2573C18.715 67.8115 18.4255 68.6013 18.4255 69.6269L18.165 67.1457C18.6199 66.3021 19.2236 65.6942 19.9762 65.322C20.7289 64.9416 21.6014 64.7513 22.5939 64.7513C23.9916 64.7513 25.071 65.2104 25.8319 66.1284C26.601 67.0382 26.9856 68.3284 26.9856 69.9991V77.8148H25.1991V70.0115ZM38.7216 69.6517C38.7216 68.6096 38.4404 67.8032 37.878 67.2325C37.3239 66.6536 36.5341 66.3641 35.5085 66.3641C34.8965 66.3641 34.2969 66.4634 33.7096 66.6619C33.1224 66.8604 32.6014 67.1416 32.1465 67.5055L30.8439 66.6122C31.3318 66.025 31.9728 65.5701 32.7668 65.2476C33.569 64.9168 34.4581 64.7513 35.4341 64.7513C36.501 64.7513 37.4149 64.9416 38.1758 65.322C38.9367 65.6942 39.5156 66.2401 39.9126 66.9596C40.3096 67.6709 40.5081 68.531 40.5081 69.54V77.8148H38.7216V69.6517ZM34.9502 78.0009C33.445 78.0009 32.2788 77.6535 31.4518 76.9588C30.6247 76.2641 30.2112 75.284 30.2112 74.0186C30.2112 72.8028 30.5875 71.8641 31.3401 71.2024C32.101 70.5325 33.172 70.1976 34.5532 70.1976H38.8333L39.007 71.86H34.5656C33.7386 71.86 33.0976 72.0502 32.6427 72.4306C32.1961 72.8028 31.9728 73.3321 31.9728 74.0186C31.9728 74.7464 32.254 75.313 32.8164 75.7182C33.3871 76.1152 34.1893 76.3137 35.2232 76.3137C36.3314 76.3137 37.1916 76.202 37.8036 75.9787C38.4156 75.7554 38.7216 75.4411 38.7216 75.0359L38.9822 76.7231C38.7258 76.9878 38.395 77.2193 37.9897 77.4178C37.5927 77.6081 37.1337 77.7528 36.6126 77.852C36.0999 77.9513 35.5457 78.0009 34.9502 78.0009ZM47.7036 77.8768C46.6615 77.8768 45.8964 77.5915 45.4085 77.0208C44.9288 76.4419 44.6889 75.59 44.6889 74.4652V61.1908H46.4754V74.49C46.4754 75.0442 46.5994 75.4701 46.8475 75.7678C47.0957 76.0656 47.4637 76.2145 47.9517 76.2145H49.1675V77.8768H47.7036ZM43.3615 64.9374H49.1675V66.4758H43.3615V64.9374Z" fill="#F2CC51"/>
<path d="M51 34.6667C51 36.1106 50.4264 37.4954 49.4054 38.5165C48.3843 39.5375 46.9995 40.1111 45.5556 40.1111H12.8889L2 51V7.44444C2 6.00049 2.57361 4.61567 3.59464 3.59464C4.61567 2.57361 6.00049 2 7.44444 2H45.5556C46.9995 2 48.3843 2.57361 49.4054 3.59464C50.4264 4.61567 51 6.00049 51 7.44444V34.6667Z" fill="#F2CC51" stroke="#F2CC51" stroke-width="3.62963" stroke-linecap="round" stroke-linejoin="round"/>
</svg>
