<svg width="29" height="46" viewBox="0 0 29 46" fill="none" xmlns="http://www.w3.org/2000/svg">
<path d="M4.95801 43.1025C4.27441 43.1025 3.70475 42.9886 3.24902 42.7607C2.79329 42.5329 2.4515 42.1911 2.22363 41.7354C2.00033 41.2796 1.88867 40.7077 1.88867 40.0195V38.8506C1.88867 38.1715 2.0026 37.6064 2.23047 37.1553C2.45833 36.7041 2.79785 36.3669 3.24902 36.1436C3.70475 35.9157 4.27441 35.8018 4.95801 35.8018C5.34538 35.8018 5.69857 35.8451 6.01758 35.9316C6.33659 36.0137 6.62142 36.139 6.87207 36.3076C7.12272 36.4717 7.34147 36.6813 7.52832 36.9365L6.79688 37.5859C6.55534 37.2943 6.2819 37.0778 5.97656 36.9365C5.67578 36.7907 5.3431 36.7178 4.97852 36.7178C4.27214 36.7178 3.74349 36.8955 3.39258 37.251C3.04622 37.6019 2.87305 38.1351 2.87305 38.8506V40.0195C2.87305 40.7441 3.0485 41.2865 3.39941 41.6465C3.75033 42.0065 4.27669 42.1865 4.97852 42.1865C5.36589 42.1865 5.7168 42.1182 6.03125 41.9814C6.35026 41.8447 6.63737 41.6374 6.89258 41.3594L7.52832 41.9883C7.34147 42.2389 7.12272 42.4463 6.87207 42.6104C6.62142 42.7744 6.33659 42.8975 6.01758 42.9795C5.69857 43.0615 5.34538 43.1025 4.95801 43.1025ZM9.06641 33.0605H10.0508V43H9.06641V33.0605ZM13.7832 38.7002C13.7832 38.0713 13.6169 37.5837 13.2842 37.2373C12.9561 36.891 12.4912 36.7178 11.8896 36.7178C11.3063 36.7178 10.8529 36.8727 10.5293 37.1826C10.2103 37.488 10.0508 37.9232 10.0508 38.4883L9.90723 37.1211C10.1579 36.6562 10.4906 36.3213 10.9053 36.1162C11.32 35.9066 11.8008 35.8018 12.3477 35.8018C13.1178 35.8018 13.7126 36.0547 14.1318 36.5605C14.5557 37.0618 14.7676 37.7728 14.7676 38.6934V43H13.7832V38.7002ZM21.2344 38.502C21.2344 37.9277 21.0794 37.4834 20.7695 37.1689C20.4642 36.8499 20.029 36.6904 19.4639 36.6904C19.1266 36.6904 18.7962 36.7451 18.4727 36.8545C18.1491 36.9639 17.862 37.1188 17.6113 37.3193L16.8936 36.8271C17.1624 36.5036 17.5156 36.2529 17.9531 36.0752C18.3952 35.8929 18.8851 35.8018 19.4229 35.8018C20.0107 35.8018 20.5143 35.9066 20.9336 36.1162C21.3529 36.3213 21.6719 36.6221 21.8906 37.0186C22.1094 37.4105 22.2188 37.8844 22.2188 38.4404V43H21.2344V38.502ZM19.1562 43.1025C18.3268 43.1025 17.6842 42.9111 17.2285 42.5283C16.7728 42.1455 16.5449 41.6055 16.5449 40.9082C16.5449 40.2383 16.7523 39.721 17.167 39.3564C17.5863 38.9873 18.1764 38.8027 18.9375 38.8027H21.2959L21.3916 39.7188H18.9443C18.4886 39.7188 18.1354 39.8236 17.8848 40.0332C17.6387 40.2383 17.5156 40.5299 17.5156 40.9082C17.5156 41.3092 17.6706 41.6214 17.9805 41.8447C18.2949 42.0635 18.737 42.1729 19.3066 42.1729C19.9173 42.1729 20.3913 42.1113 20.7285 41.9883C21.0658 41.8652 21.2344 41.6921 21.2344 41.4688L21.3779 42.3984C21.2367 42.5443 21.0544 42.6719 20.8311 42.7812C20.6123 42.8861 20.3594 42.9658 20.0723 43.0205C19.7897 43.0752 19.4844 43.1025 19.1562 43.1025ZM26.1836 43.0342C25.6094 43.0342 25.1878 42.877 24.9189 42.5625C24.6546 42.2435 24.5225 41.7741 24.5225 41.1543V33.8398H25.5068V41.168C25.5068 41.4733 25.5752 41.708 25.7119 41.8721C25.8486 42.0361 26.0514 42.1182 26.3203 42.1182H26.9902V43.0342H26.1836ZM23.791 35.9043H26.9902V36.752H23.791V35.9043Z" fill="black"/>
<path d="M28 19C28 19.7956 27.6839 20.5587 27.1213 21.1213C26.5587 21.6839 25.7956 22 25 22H7L1 28V4C1 3.20435 1.31607 2.44129 1.87868 1.87868C2.44129 1.31607 3.20435 1 4 1H25C25.7956 1 26.5587 1.31607 27.1213 1.87868C27.6839 2.44129 28 3.20435 28 4V19Z" stroke="black" stroke-width="2" stroke-linecap="round" stroke-linejoin="round"/>
</svg>
