<svg width="39" height="35" viewBox="0 0 39 35" fill="none" xmlns="http://www.w3.org/2000/svg">
<path d="M0.343137 13.7255C0.343137 10.4807 0.343866 8.08156 0.591334 6.24092C0.837475 4.41014 1.32204 3.18333 2.25269 2.25269C3.18333 1.32204 4.41014 0.837475 6.24092 0.591334C8.08156 0.343866 10.4807 0.343137 13.7255 0.343137H24.7059C27.9507 0.343137 30.3498 0.343866 32.1905 0.591334C34.0212 0.837475 35.248 1.32204 36.1787 2.25269C37.1093 3.18333 37.5939 4.41014 37.84 6.24092C38.0875 8.08156 38.0882 10.4807 38.0882 13.7255V21.2745C38.0882 24.5193 38.0875 26.9184 37.84 28.7591C37.5939 30.5899 37.1093 31.8167 36.1787 32.7473C35.248 33.678 34.0212 34.1625 32.1905 34.4087C30.3498 34.6561 27.9507 34.6569 24.7059 34.6569H13.7255C10.4807 34.6569 8.08155 34.6561 6.24091 34.4087C4.41014 34.1625 3.18333 33.678 2.25269 32.7473C1.32204 31.8167 0.837475 30.5899 0.591334 28.7591C0.343866 26.9184 0.343137 24.5193 0.343137 21.2745V13.7255Z" stroke="#FFD54F" stroke-width="0.686275"/>
<path d="M28 11L17 22L12 17" stroke="#FFD54F" stroke-width="2" stroke-linecap="round" stroke-linejoin="round"/>
</svg>
