<svg width="46" height="49" viewBox="0 0 46 49" fill="none" xmlns="http://www.w3.org/2000/svg">
<path d="M3.95801 46.1025C3.27441 46.1025 2.70475 45.9886 2.24902 45.7607C1.79329 45.5329 1.4515 45.1911 1.22363 44.7354C1.00033 44.2796 0.888672 43.7077 0.888672 43.0195V41.8506C0.888672 41.1715 1.0026 40.6064 1.23047 40.1553C1.45833 39.7041 1.79785 39.3669 2.24902 39.1436C2.70475 38.9157 3.27441 38.8018 3.95801 38.8018C4.34538 38.8018 4.69857 38.8451 5.01758 38.9316C5.33659 39.0137 5.62142 39.139 5.87207 39.3076C6.12272 39.4717 6.34147 39.6813 6.52832 39.9365L5.79688 40.5859C5.55534 40.2943 5.2819 40.0778 4.97656 39.9365C4.67578 39.7907 4.3431 39.7178 3.97852 39.7178C3.27214 39.7178 2.74349 39.8955 2.39258 40.251C2.04622 40.6019 1.87305 41.1351 1.87305 41.8506V43.0195C1.87305 43.7441 2.0485 44.2865 2.39941 44.6465C2.75033 45.0065 3.27669 45.1865 3.97852 45.1865C4.36589 45.1865 4.7168 45.1182 5.03125 44.9814C5.35026 44.8447 5.63737 44.6374 5.89258 44.3594L6.52832 44.9883C6.34147 45.2389 6.12272 45.4463 5.87207 45.6104C5.62142 45.7744 5.33659 45.8975 5.01758 45.9795C4.69857 46.0615 4.34538 46.1025 3.95801 46.1025ZM10.7871 46.1025C10.1719 46.1025 9.64551 45.9818 9.20801 45.7402C8.77051 45.4987 8.43555 45.1478 8.20312 44.6875C7.97526 44.2227 7.86133 43.6644 7.86133 43.0127V41.8574C7.86133 41.2148 7.97526 40.6657 8.20312 40.21C8.43555 39.7497 8.77051 39.401 9.20801 39.1641C9.64551 38.9225 10.1719 38.8018 10.7871 38.8018C11.4023 38.8018 11.9287 38.9225 12.3662 39.1641C12.8037 39.401 13.1364 39.7497 13.3643 40.21C13.5967 40.6657 13.7129 41.2148 13.7129 41.8574V43.0332C13.7129 43.6803 13.5967 44.234 13.3643 44.6943C13.1364 45.1501 12.8037 45.4987 12.3662 45.7402C11.9287 45.9818 11.4023 46.1025 10.7871 46.1025ZM10.7803 45.1865C11.4001 45.1865 11.8786 44.9997 12.2158 44.626C12.5576 44.2477 12.7285 43.7168 12.7285 43.0332V41.8574C12.7285 41.1784 12.5576 40.652 12.2158 40.2783C11.8786 39.9046 11.4001 39.7178 10.7803 39.7178C10.165 39.7178 9.6888 39.9046 9.35156 40.2783C9.01432 40.652 8.8457 41.1784 8.8457 41.8574V43.0332C8.8457 43.7168 9.01432 44.2477 9.35156 44.626C9.6888 44.9997 10.165 45.1865 10.7803 45.1865ZM15.6953 38.9043H16.6797V46H15.6953V38.9043ZM20.4121 41.7002C20.4121 41.0713 20.2458 40.5837 19.9131 40.2373C19.585 39.891 19.1201 39.7178 18.5186 39.7178C17.9352 39.7178 17.4818 39.8727 17.1582 40.1826C16.8392 40.488 16.6797 40.9232 16.6797 41.4883L16.5361 40.1211C16.7868 39.6562 17.1195 39.3213 17.5342 39.1162C17.9489 38.9066 18.4297 38.8018 18.9766 38.8018C19.7467 38.8018 20.3415 39.0547 20.7607 39.5605C21.1846 40.0618 21.3965 40.7728 21.3965 41.6934V46H20.4121V41.7002ZM25.3613 46.0342C24.7871 46.0342 24.3656 45.877 24.0967 45.5625C23.8324 45.2435 23.7002 44.7741 23.7002 44.1543V36.8398H24.6846V44.168C24.6846 44.4733 24.7529 44.708 24.8896 44.8721C25.0264 45.0361 25.2292 45.1182 25.498 45.1182H26.168V46.0342H25.3613ZM22.9688 38.9043H26.168V39.752H22.9688V38.9043ZM32.4297 41.502C32.4297 40.9277 32.2747 40.4834 31.9648 40.1689C31.6595 39.8499 31.2243 39.6904 30.6592 39.6904C30.3219 39.6904 29.9915 39.7451 29.668 39.8545C29.3444 39.9639 29.0573 40.1188 28.8066 40.3193L28.0889 39.8271C28.3577 39.5036 28.7109 39.2529 29.1484 39.0752C29.5905 38.8929 30.0804 38.8018 30.6182 38.8018C31.2061 38.8018 31.7096 38.9066 32.1289 39.1162C32.5482 39.3213 32.8672 39.6221 33.0859 40.0186C33.3047 40.4105 33.4141 40.8844 33.4141 41.4404V46H32.4297V41.502ZM30.3516 46.1025C29.5221 46.1025 28.8796 45.9111 28.4238 45.5283C27.9681 45.1455 27.7402 44.6055 27.7402 43.9082C27.7402 43.2383 27.9476 42.721 28.3623 42.3564C28.7816 41.9873 29.3717 41.8027 30.1328 41.8027H32.4912L32.5869 42.7188H30.1396C29.6839 42.7188 29.3307 42.8236 29.0801 43.0332C28.834 43.2383 28.7109 43.5299 28.7109 43.9082C28.7109 44.3092 28.8659 44.6214 29.1758 44.8447C29.4902 45.0635 29.9323 45.1729 30.502 45.1729C31.1126 45.1729 31.5866 45.1113 31.9238 44.9883C32.2611 44.8652 32.4297 44.6921 32.4297 44.4688L32.5732 45.3984C32.432 45.5443 32.2497 45.6719 32.0264 45.7812C31.8076 45.8861 31.5547 45.9658 31.2676 46.0205C30.985 46.0752 30.6797 46.1025 30.3516 46.1025ZM38.3975 46.1025C37.7139 46.1025 37.1442 45.9886 36.6885 45.7607C36.2327 45.5329 35.891 45.1911 35.6631 44.7354C35.4398 44.2796 35.3281 43.7077 35.3281 43.0195V41.8506C35.3281 41.1715 35.4421 40.6064 35.6699 40.1553C35.8978 39.7041 36.2373 39.3669 36.6885 39.1436C37.1442 38.9157 37.7139 38.8018 38.3975 38.8018C38.7848 38.8018 39.138 38.8451 39.457 38.9316C39.776 39.0137 40.0609 39.139 40.3115 39.3076C40.5622 39.4717 40.7809 39.6813 40.9678 39.9365L40.2363 40.5859C39.9948 40.2943 39.7214 40.0778 39.416 39.9365C39.1152 39.7907 38.7826 39.7178 38.418 39.7178C37.7116 39.7178 37.1829 39.8955 36.832 40.251C36.4857 40.6019 36.3125 41.1351 36.3125 41.8506V43.0195C36.3125 43.7441 36.488 44.2865 36.8389 44.6465C37.1898 45.0065 37.7161 45.1865 38.418 45.1865C38.8053 45.1865 39.1562 45.1182 39.4707 44.9814C39.7897 44.8447 40.0768 44.6374 40.332 44.3594L40.9678 44.9883C40.7809 45.2389 40.5622 45.4463 40.3115 45.6104C40.0609 45.7744 39.776 45.8975 39.457 45.9795C39.138 46.0615 38.7848 46.1025 38.3975 46.1025ZM44.3516 46.0342C43.7773 46.0342 43.3558 45.877 43.0869 45.5625C42.8226 45.2435 42.6904 44.7741 42.6904 44.1543V36.8398H43.6748V44.168C43.6748 44.4733 43.7432 44.708 43.8799 44.8721C44.0166 45.0361 44.2194 45.1182 44.4883 45.1182H45.1582V46.0342H44.3516ZM41.959 38.9043H45.1582V39.752H41.959V38.9043Z" fill="black"/>
<path d="M33 28V25C33 23.4087 32.3679 21.8826 31.2426 20.7574C30.1174 19.6321 28.5913 19 27 19H15C13.4087 19 11.8826 19.6321 10.7574 20.7574C9.63214 21.8826 9 23.4087 9 25V28" stroke="black" stroke-width="2" stroke-linecap="round" stroke-linejoin="round"/>
<path d="M21 13C24.3137 13 27 10.3137 27 7C27 3.68629 24.3137 1 21 1C17.6863 1 15 3.68629 15 7C15 10.3137 17.6863 13 21 13Z" stroke="black" stroke-width="2" stroke-linecap="round" stroke-linejoin="round"/>
</svg>
