<svg width="89" height="89" viewBox="0 0 89 89" fill="none" xmlns="http://www.w3.org/2000/svg">
<path d="M44.5 56.3637C51.0521 56.3637 56.3636 51.0522 56.3636 44.5001C56.3636 37.948 51.0521 32.6365 44.5 32.6365C37.9479 32.6365 32.6364 37.948 32.6364 44.5001C32.6364 51.0522 37.9479 56.3637 44.5 56.3637Z" stroke="#FFD54F" stroke-width="2" stroke-linecap="round" stroke-linejoin="round"/>
<path d="M73.7636 56.3636C73.2372 57.5564 73.0802 58.8795 73.3128 60.1623C73.5454 61.4452 74.157 62.6289 75.0686 63.5609L75.3059 63.7982C76.0413 64.5327 76.6246 65.405 77.0227 66.3652C77.4207 67.3253 77.6255 68.3545 77.6255 69.3939C77.6255 70.4332 77.4207 71.4624 77.0227 72.4226C76.6246 73.3827 76.0413 74.255 75.3059 74.9895C74.5714 75.7249 73.6991 76.3083 72.7389 76.7063C71.7788 77.1043 70.7496 77.3092 69.7102 77.3092C68.6709 77.3092 67.6417 77.1043 66.6815 76.7063C65.7214 76.3083 64.8491 75.7249 64.1145 74.9895L63.8773 74.7523C62.9453 73.8406 61.7615 73.229 60.4787 72.9964C59.1959 72.7638 57.8728 72.9209 56.68 73.4473C55.5104 73.9486 54.5128 74.7809 53.8102 75.8419C53.1076 76.9029 52.7305 78.1461 52.7255 79.4186V80.0909C52.7255 82.1885 51.8922 84.2002 50.4089 85.6835C48.9257 87.1667 46.914 88 44.8164 88C42.7187 88 40.707 87.1667 39.2238 85.6835C37.7406 84.2002 36.9073 82.1885 36.9073 80.0909V79.735C36.8767 78.4261 36.453 77.1566 35.6913 76.0917C34.9296 75.0267 33.8652 74.2156 32.6364 73.7636C31.4436 73.2372 30.1205 73.0802 28.8377 73.3128C27.5548 73.5454 26.3711 74.157 25.4391 75.0686L25.2018 75.3059C24.4673 76.0413 23.595 76.6246 22.6348 77.0227C21.6747 77.4207 20.6455 77.6255 19.6061 77.6255C18.5668 77.6255 17.5376 77.4207 16.5774 77.0227C15.6173 76.6246 14.745 76.0413 14.0105 75.3059C13.2751 74.5714 12.6917 73.6991 12.2937 72.7389C11.8957 71.7788 11.6908 70.7496 11.6908 69.7102C11.6908 68.6709 11.8957 67.6417 12.2937 66.6815C12.6917 65.7214 13.2751 64.8491 14.0105 64.1145L14.2477 63.8773C15.1594 62.9453 15.771 61.7615 16.0036 60.4787C16.2362 59.1959 16.0791 57.8728 15.5527 56.68C15.0514 55.5104 14.2191 54.5128 13.1581 53.8102C12.0971 53.1076 10.8539 52.7305 9.58136 52.7255H8.90909C6.81147 52.7255 4.79976 51.8922 3.31652 50.4089C1.83328 48.9257 1 46.914 1 44.8164C1 42.7187 1.83328 40.707 3.31652 39.2238C4.79976 37.7406 6.81147 36.9073 8.90909 36.9073H9.265C10.5739 36.8767 11.8434 36.453 12.9083 35.6913C13.9733 34.9296 14.7844 33.8652 15.2364 32.6364C15.7628 31.4436 15.9198 30.1205 15.6872 28.8377C15.4546 27.5548 14.843 26.3711 13.9314 25.4391L13.6941 25.2018C12.9587 24.4673 12.3754 23.595 11.9773 22.6348C11.5793 21.6747 11.3745 20.6455 11.3745 19.6061C11.3745 18.5668 11.5793 17.5376 11.9773 16.5774C12.3754 15.6173 12.9587 14.745 13.6941 14.0105C14.4286 13.2751 15.3009 12.6917 16.2611 12.2937C17.2212 11.8957 18.2504 11.6908 19.2898 11.6908C20.3291 11.6908 21.3583 11.8957 22.3185 12.2937C23.2786 12.6917 24.1509 13.2751 24.8855 14.0105L25.1227 14.2477C26.0547 15.1594 27.2385 15.771 28.5213 16.0036C29.8041 16.2362 31.1272 16.0791 32.32 15.5527H32.6364C33.806 15.0514 34.8035 14.2191 35.5061 13.1581C36.2088 12.0971 36.5858 10.8539 36.5909 9.58136V8.90909C36.5909 6.81147 37.4242 4.79976 38.9074 3.31652C40.3907 1.83328 42.4024 1 44.5 1C46.5976 1 48.6093 1.83328 50.0926 3.31652C51.5758 4.79976 52.4091 6.81147 52.4091 8.90909V9.265C52.4142 10.5375 52.7912 11.7808 53.4939 12.8418C54.1965 13.9027 55.194 14.7351 56.3636 15.2364C57.5564 15.7628 58.8795 15.9198 60.1623 15.6872C61.4452 15.4546 62.6289 14.843 63.5609 13.9314L63.7982 13.6941C64.5327 12.9587 65.405 12.3754 66.3652 11.9773C67.3253 11.5793 68.3545 11.3745 69.3939 11.3745C70.4332 11.3745 71.4624 11.5793 72.4226 11.9773C73.3827 12.3754 74.255 12.9587 74.9895 13.6941C75.7249 14.4286 76.3083 15.3009 76.7063 16.2611C77.1043 17.2212 77.3092 18.2504 77.3092 19.2898C77.3092 20.3291 77.1043 21.3583 76.7063 22.3185C76.3083 23.2786 75.7249 24.1509 74.9895 24.8855L74.7523 25.1227C73.8406 26.0547 73.229 27.2385 72.9964 28.5213C72.7638 29.8041 72.9209 31.1272 73.4473 32.32V32.6364C73.9486 33.806 74.7809 34.8035 75.8419 35.5061C76.9029 36.2088 78.1461 36.5858 79.4186 36.5909H80.0909C82.1885 36.5909 84.2002 37.4242 85.6835 38.9074C87.1667 40.3907 88 42.4024 88 44.5C88 46.5976 87.1667 48.6093 85.6835 50.0926C84.2002 51.5758 82.1885 52.4091 80.0909 52.4091H79.735C78.4625 52.4142 77.2192 52.7912 76.1583 53.4939C75.0973 54.1965 74.2649 55.194 73.7636 56.3636V56.3636Z" stroke="#FFD54F" stroke-width="2" stroke-linecap="round" stroke-linejoin="round"/>
</svg>
