<svg width="57" height="46" viewBox="0 0 57 46" fill="none" xmlns="http://www.w3.org/2000/svg">
<path d="M9.98047 38.7002C9.98047 38.0713 9.83008 37.5837 9.5293 37.2373C9.22852 36.891 8.80469 36.7178 8.25781 36.7178C7.70638 36.7178 7.27799 36.8864 6.97266 37.2236C6.67188 37.5609 6.52148 38.0348 6.52148 38.6455L6.10449 37.6201C6.33236 37.0322 6.64909 36.5833 7.05469 36.2734C7.46029 35.959 7.94792 35.8018 8.51758 35.8018C9.03255 35.8018 9.47233 35.9157 9.83691 36.1436C10.2061 36.3669 10.4863 36.695 10.6777 37.1279C10.8691 37.5609 10.9648 38.0827 10.9648 38.6934V43H9.98047V38.7002ZM1.09375 35.9043H2.07812V43H1.09375V35.9043ZM5.53711 38.7002C5.53711 38.0713 5.38672 37.5837 5.08594 37.2373C4.78971 36.891 4.36589 36.7178 3.81445 36.7178C3.26302 36.7178 2.83464 36.875 2.5293 37.1895C2.22852 37.4993 2.07812 37.9391 2.07812 38.5088L1.93457 37.1416C2.17155 36.6676 2.48145 36.3258 2.86426 36.1162C3.24707 35.9066 3.69368 35.8018 4.2041 35.8018C4.69173 35.8018 5.10872 35.9157 5.45508 36.1436C5.80599 36.3669 6.07031 36.695 6.24805 37.1279C6.43034 37.5609 6.52148 38.0827 6.52148 38.6934V43H5.53711V38.7002ZM15.9893 43.1025C15.333 43.1025 14.7725 42.9795 14.3076 42.7334C13.8428 42.4827 13.4873 42.1204 13.2412 41.6465C12.9997 41.168 12.8789 40.5938 12.8789 39.9238V39.124C12.8789 38.4222 12.9951 37.8229 13.2275 37.3262C13.4645 36.8294 13.8063 36.4512 14.2529 36.1914C14.6995 35.9316 15.2373 35.8018 15.8662 35.8018C16.4587 35.8018 16.9645 35.9294 17.3838 36.1846C17.8031 36.4398 18.1221 36.8135 18.3408 37.3057C18.5641 37.7933 18.6758 38.3812 18.6758 39.0693V39.8828H13.5488V38.9941H17.7598V38.9258C17.7598 38.224 17.5934 37.6816 17.2607 37.2988C16.9326 36.9115 16.4678 36.7178 15.8662 36.7178C15.2054 36.7178 14.695 36.9206 14.335 37.3262C13.9749 37.7318 13.7949 38.306 13.7949 39.0488V39.9512C13.7949 40.6621 13.9863 41.2135 14.3691 41.6055C14.752 41.9928 15.292 42.1865 15.9893 42.1865C16.3174 42.1865 16.641 42.1182 16.96 41.9814C17.2835 41.8447 17.5706 41.651 17.8213 41.4004L18.4912 42.043C18.1449 42.3802 17.7529 42.6423 17.3154 42.8291C16.8779 43.0114 16.4359 43.1025 15.9893 43.1025ZM23.0303 43.1025C22.6475 43.1025 22.276 43.0661 21.916 42.9932C21.556 42.9157 21.2188 42.804 20.9043 42.6582C20.5944 42.5124 20.3187 42.3369 20.0771 42.1318L20.6445 41.4414C21.0319 41.7012 21.4329 41.904 21.8477 42.0498C22.2624 42.1911 22.6566 42.2617 23.0303 42.2617C23.7093 42.2617 24.2334 42.1455 24.6025 41.9131C24.9762 41.6807 25.1631 41.3525 25.1631 40.9287C25.1631 40.6188 25.0719 40.3864 24.8896 40.2314C24.7119 40.0765 24.4863 39.9717 24.2129 39.917C23.9395 39.8623 23.5589 39.8167 23.0713 39.7803C23.0257 39.7757 22.9779 39.7734 22.9277 39.7734C22.8822 39.7689 22.8366 39.7643 22.791 39.7598C22.7728 39.7598 22.7546 39.7598 22.7363 39.7598C22.7181 39.7552 22.6999 39.7529 22.6816 39.7529C22.2122 39.7074 21.8203 39.639 21.5059 39.5479C21.1914 39.4567 20.9271 39.2858 20.7129 39.0352C20.5033 38.7845 20.3984 38.4222 20.3984 37.9482C20.3984 37.4925 20.5078 37.1051 20.7266 36.7861C20.9499 36.4671 21.2734 36.2233 21.6973 36.0547C22.1257 35.8861 22.6383 35.8018 23.2354 35.8018C23.5452 35.8018 23.8551 35.8337 24.165 35.8975C24.4749 35.9567 24.7712 36.0456 25.0537 36.1641C25.3408 36.278 25.6029 36.417 25.8398 36.5811L25.2725 37.2578C24.9352 37.0618 24.5843 36.9115 24.2197 36.8066C23.8551 36.6973 23.5133 36.6426 23.1943 36.6426C22.5973 36.6426 22.1348 36.7542 21.8066 36.9775C21.4785 37.2008 21.3145 37.5153 21.3145 37.9209C21.3145 38.2035 21.4033 38.4154 21.5811 38.5566C21.7588 38.6934 21.9821 38.7845 22.251 38.8301C22.5244 38.8757 22.8981 38.9121 23.3721 38.9395C23.3903 38.9395 23.4085 38.9417 23.4268 38.9463C23.4495 38.9463 23.4701 38.9463 23.4883 38.9463C23.502 38.9463 23.5156 38.9463 23.5293 38.9463C23.543 38.9463 23.5566 38.9486 23.5703 38.9531C24.0671 38.9805 24.4886 39.042 24.835 39.1377C25.1859 39.2334 25.4798 39.4225 25.7168 39.7051C25.9538 39.9876 26.0723 40.3955 26.0723 40.9287C26.0723 41.389 25.9538 41.7809 25.7168 42.1045C25.4798 42.4281 25.1335 42.6764 24.6777 42.8496C24.222 43.0182 23.6729 43.1025 23.0303 43.1025ZM30.29 43.1025C29.9072 43.1025 29.5358 43.0661 29.1758 42.9932C28.8158 42.9157 28.4785 42.804 28.1641 42.6582C27.8542 42.5124 27.5785 42.3369 27.3369 42.1318L27.9043 41.4414C28.2917 41.7012 28.6927 41.904 29.1074 42.0498C29.5221 42.1911 29.9163 42.2617 30.29 42.2617C30.9691 42.2617 31.4932 42.1455 31.8623 41.9131C32.236 41.6807 32.4229 41.3525 32.4229 40.9287C32.4229 40.6188 32.3317 40.3864 32.1494 40.2314C31.9717 40.0765 31.7461 39.9717 31.4727 39.917C31.1992 39.8623 30.8187 39.8167 30.3311 39.7803C30.2855 39.7757 30.2376 39.7734 30.1875 39.7734C30.1419 39.7689 30.0964 39.7643 30.0508 39.7598C30.0326 39.7598 30.0143 39.7598 29.9961 39.7598C29.9779 39.7552 29.9596 39.7529 29.9414 39.7529C29.472 39.7074 29.0801 39.639 28.7656 39.5479C28.4512 39.4567 28.1868 39.2858 27.9727 39.0352C27.763 38.7845 27.6582 38.4222 27.6582 37.9482C27.6582 37.4925 27.7676 37.1051 27.9863 36.7861C28.2096 36.4671 28.5332 36.2233 28.957 36.0547C29.3854 35.8861 29.8981 35.8018 30.4951 35.8018C30.805 35.8018 31.1149 35.8337 31.4248 35.8975C31.7347 35.9567 32.0309 36.0456 32.3135 36.1641C32.6006 36.278 32.8626 36.417 33.0996 36.5811L32.5322 37.2578C32.195 37.0618 31.8441 36.9115 31.4795 36.8066C31.1149 36.6973 30.7731 36.6426 30.4541 36.6426C29.8571 36.6426 29.3945 36.7542 29.0664 36.9775C28.7383 37.2008 28.5742 37.5153 28.5742 37.9209C28.5742 38.2035 28.6631 38.4154 28.8408 38.5566C29.0186 38.6934 29.2419 38.7845 29.5107 38.8301C29.7842 38.8757 30.1579 38.9121 30.6318 38.9395C30.6501 38.9395 30.6683 38.9417 30.6865 38.9463C30.7093 38.9463 30.7298 38.9463 30.748 38.9463C30.7617 38.9463 30.7754 38.9463 30.7891 38.9463C30.8027 38.9463 30.8164 38.9486 30.8301 38.9531C31.3268 38.9805 31.7484 39.042 32.0947 39.1377C32.4456 39.2334 32.7396 39.4225 32.9766 39.7051C33.2135 39.9876 33.332 40.3955 33.332 40.9287C33.332 41.389 33.2135 41.7809 32.9766 42.1045C32.7396 42.4281 32.3932 42.6764 31.9375 42.8496C31.4818 43.0182 30.9326 43.1025 30.29 43.1025ZM39.457 38.502C39.457 37.9277 39.3021 37.4834 38.9922 37.1689C38.6868 36.8499 38.2516 36.6904 37.6865 36.6904C37.3493 36.6904 37.0189 36.7451 36.6953 36.8545C36.3717 36.9639 36.0846 37.1188 35.834 37.3193L35.1162 36.8271C35.3851 36.5036 35.7383 36.2529 36.1758 36.0752C36.6178 35.8929 37.1077 35.8018 37.6455 35.8018C38.2334 35.8018 38.737 35.9066 39.1562 36.1162C39.5755 36.3213 39.8945 36.6221 40.1133 37.0186C40.332 37.4105 40.4414 37.8844 40.4414 38.4404V43H39.457V38.502ZM37.3789 43.1025C36.5495 43.1025 35.9069 42.9111 35.4512 42.5283C34.9954 42.1455 34.7676 41.6055 34.7676 40.9082C34.7676 40.2383 34.9749 39.721 35.3896 39.3564C35.8089 38.9873 36.3991 38.8027 37.1602 38.8027H39.5186L39.6143 39.7188H37.167C36.7113 39.7188 36.3581 39.8236 36.1074 40.0332C35.8613 40.2383 35.7383 40.5299 35.7383 40.9082C35.7383 41.3092 35.8932 41.6214 36.2031 41.8447C36.5176 42.0635 36.9596 42.1729 37.5293 42.1729C38.14 42.1729 38.6139 42.1113 38.9512 41.9883C39.2884 41.8652 39.457 41.6921 39.457 41.4688L39.6006 42.3984C39.4593 42.5443 39.277 42.6719 39.0537 42.7812C38.835 42.8861 38.582 42.9658 38.2949 43.0205C38.0124 43.0752 37.707 43.1025 37.3789 43.1025ZM44.9395 45.8848C44.4017 45.8848 43.9232 45.7845 43.5039 45.584C43.0846 45.388 42.7588 45.11 42.5264 44.75L43.1963 44.1484C43.4105 44.4264 43.668 44.6406 43.9688 44.791C44.2695 44.946 44.5863 45.0234 44.9189 45.0234C45.5798 45.0234 46.0924 44.8389 46.457 44.4697C46.8216 44.1051 47.0039 43.5902 47.0039 42.9248V35.9043H47.9883V42.7881C47.9883 43.4398 47.8675 43.998 47.626 44.4629C47.389 44.9277 47.0426 45.2809 46.5869 45.5225C46.1312 45.764 45.582 45.8848 44.9395 45.8848ZM44.8096 43.1025C44.2946 43.1025 43.8525 42.9909 43.4834 42.7676C43.1143 42.5397 42.834 42.2116 42.6426 41.7832C42.4512 41.3548 42.3555 40.8398 42.3555 40.2383V38.6934C42.3555 38.0827 42.4489 37.5609 42.6357 37.1279C42.8226 36.695 43.0938 36.3669 43.4492 36.1436C43.8092 35.9157 44.2399 35.8018 44.7412 35.8018C45.2835 35.8018 45.7575 35.9043 46.1631 36.1094C46.5732 36.3099 46.9014 36.6403 47.1475 37.1006L47.0039 38.4678C47.0039 38.1579 46.931 37.8639 46.7852 37.5859C46.6439 37.3079 46.4365 37.0824 46.1631 36.9092C45.8896 36.736 45.5684 36.6494 45.1992 36.6494C44.6068 36.6494 44.1488 36.8294 43.8252 37.1895C43.5016 37.5449 43.3398 38.0485 43.3398 38.7002V40.2383C43.3398 40.8763 43.5016 41.373 43.8252 41.7285C44.1488 42.0794 44.6068 42.2549 45.1992 42.2549C45.5638 42.2549 45.8828 42.166 46.1562 41.9883C46.4297 41.8105 46.6393 41.5804 46.7852 41.2979C46.931 41.0107 47.0039 40.7122 47.0039 40.4023L47.0996 41.8857C46.9219 42.3187 46.6393 42.6309 46.252 42.8223C45.8646 43.0091 45.3838 43.1025 44.8096 43.1025ZM53.0127 43.1025C52.3564 43.1025 51.7959 42.9795 51.3311 42.7334C50.8662 42.4827 50.5107 42.1204 50.2646 41.6465C50.0231 41.168 49.9023 40.5938 49.9023 39.9238V39.124C49.9023 38.4222 50.0186 37.8229 50.251 37.3262C50.488 36.8294 50.8298 36.4512 51.2764 36.1914C51.723 35.9316 52.2607 35.8018 52.8896 35.8018C53.4821 35.8018 53.988 35.9294 54.4072 36.1846C54.8265 36.4398 55.1455 36.8135 55.3643 37.3057C55.5876 37.7933 55.6992 38.3812 55.6992 39.0693V39.8828H50.5723V38.9941H54.7832V38.9258C54.7832 38.224 54.6169 37.6816 54.2842 37.2988C53.9561 36.9115 53.4912 36.7178 52.8896 36.7178C52.2288 36.7178 51.7184 36.9206 51.3584 37.3262C50.9984 37.7318 50.8184 38.306 50.8184 39.0488V39.9512C50.8184 40.6621 51.0098 41.2135 51.3926 41.6055C51.7754 41.9928 52.3154 42.1865 53.0127 42.1865C53.3408 42.1865 53.6644 42.1182 53.9834 41.9814C54.307 41.8447 54.5941 41.651 54.8447 41.4004L55.5146 42.043C55.1683 42.3802 54.7764 42.6423 54.3389 42.8291C53.9014 43.0114 53.4593 43.1025 53.0127 43.1025Z" fill="black"/>
<path d="M14 1H38C39.65 1 41 2.35 41 4V22C41 23.65 39.65 25 38 25H14C12.35 25 11 23.65 11 22V4C11 2.35 12.35 1 14 1Z" stroke="black" stroke-width="2" stroke-linecap="round" stroke-linejoin="round"/>
<path d="M41 4L26 14.5L11 4" stroke="black" stroke-width="2" stroke-linecap="round" stroke-linejoin="round"/>
</svg>
