<svg width="27" height="31" viewBox="0 0 27 31" fill="none" xmlns="http://www.w3.org/2000/svg">
<path d="M15.5278 27.9436C15.2836 28.3645 14.9331 28.714 14.5114 28.9568C14.0897 29.1997 13.6116 29.3276 13.125 29.3276C12.6384 29.3276 12.1603 29.1997 11.7386 28.9568C11.3169 28.714 10.9664 28.3645 10.7222 27.9436" stroke="black" stroke-width="1.66667" stroke-linecap="round" stroke-linejoin="round"/>
<path d="M21.8333 9.88802C21.8333 7.67788 20.9554 5.55827 19.3926 3.99546C17.8298 2.43266 15.7101 1.55469 13.5 1.55469C11.2899 1.55469 9.17025 2.43266 7.60744 3.99546C6.04464 5.55827 5.16667 7.67788 5.16667 9.88802C5.16667 19.6102 1 22.388 1 22.388H26C26 22.388 21.8333 19.6102 21.8333 9.88802Z" stroke="black" stroke-width="1.66667" stroke-linecap="round" stroke-linejoin="round"/>
</svg>
