<svg width="21" height="21" viewBox="0 0 21 21" fill="none" xmlns="http://www.w3.org/2000/svg">
<path d="M19.8881 15.1719V18.021C19.8892 18.2855 19.835 18.5473 19.7291 18.7897C19.6231 19.032 19.4677 19.2496 19.2728 19.4284C19.0779 19.6072 18.8478 19.7433 18.5972 19.8281C18.3467 19.9128 18.0812 19.9443 17.8178 19.9205C14.8953 19.6029 12.0881 18.6043 9.62167 17.0048C7.32698 15.5467 5.38149 13.6012 3.92335 11.3065C2.3183 8.82888 1.31945 6.00801 1.00771 3.07243C0.983976 2.80981 1.01519 2.54511 1.09936 2.29521C1.18353 2.0453 1.31881 1.81566 1.49659 1.6209C1.67438 1.42615 1.89076 1.27054 2.13198 1.16399C2.37319 1.05745 2.63395 1.00229 2.89765 1.00205H5.74681C6.20772 0.997509 6.65455 1.16072 7.00401 1.46127C7.35348 1.76181 7.58174 2.17917 7.64625 2.63556C7.76651 3.54736 7.98953 4.44262 8.31106 5.30428C8.43883 5.6442 8.46649 6.01364 8.39074 6.3688C8.315 6.72396 8.13903 7.04997 7.88368 7.30819L6.67754 8.51433C8.02952 10.892 9.99819 12.8607 12.3759 14.2127L13.582 13.0065C13.8402 12.7512 14.1662 12.5752 14.5214 12.4994C14.8766 12.4237 15.246 12.4514 15.5859 12.5791C16.4476 12.9007 17.3428 13.1237 18.2546 13.2439C18.716 13.309 19.1373 13.5414 19.4385 13.8969C19.7397 14.2523 19.8997 14.7061 19.8881 15.1719Z" stroke="#FFD54F" stroke-opacity="0.69" stroke-width="1.5" stroke-linecap="round" stroke-linejoin="round"/>
</svg>
