<svg width="19" height="19" viewBox="0 0 19 19" fill="none" xmlns="http://www.w3.org/2000/svg">
<path d="M14.44 14.44V13.2578C14.44 12.6307 14.1998 12.0293 13.7722 11.5858C13.3446 11.1424 12.7647 10.8933 12.16 10.8933H7.6C6.99531 10.8933 6.41538 11.1424 5.9878 11.5858C5.56021 12.0293 5.32 12.6307 5.32 13.2578V14.44" stroke="#FFD54F" stroke-opacity="0.69" stroke-width="1.13736" stroke-linecap="round" stroke-linejoin="round"/>
<path d="M9.87999 8.52894C11.1392 8.52894 12.16 7.47034 12.16 6.16449C12.16 4.85865 11.1392 3.80005 9.87999 3.80005C8.62078 3.80005 7.59999 4.85865 7.59999 6.16449C7.59999 7.47034 8.62078 8.52894 9.87999 8.52894Z" stroke="#FFD54F" stroke-opacity="0.69" stroke-width="1.13736" stroke-linecap="round" stroke-linejoin="round"/>
<circle cx="9.5" cy="9.5" r="9.16071" stroke="#FFD54F" stroke-opacity="0.69" stroke-width="0.678571"/>
</svg>
