<svg width="23" height="19" viewBox="0 0 23 19" fill="none" xmlns="http://www.w3.org/2000/svg">
<path d="M16.1111 17.9999V16.111C16.1111 15.1091 15.7131 14.1482 15.0046 13.4397C14.2962 12.7313 13.3353 12.3333 12.3333 12.3333H4.77778C3.77585 12.3333 2.81496 12.7313 2.10649 13.4397C1.39801 14.1482 1 15.1091 1 16.111V17.9999" stroke="#FFD54F" stroke-opacity="0.69" stroke-width="1.41667" stroke-linecap="round" stroke-linejoin="round"/>
<path d="M8.55556 8.55556C10.642 8.55556 12.3333 6.86419 12.3333 4.77778C12.3333 2.69137 10.642 1 8.55556 1C6.46915 1 4.77778 2.69137 4.77778 4.77778C4.77778 6.86419 6.46915 8.55556 8.55556 8.55556Z" stroke="#FFD54F" stroke-opacity="0.69" stroke-width="1.41667" stroke-linecap="round" stroke-linejoin="round"/>
<path d="M21.7778 17.9999V16.1111C21.7772 15.274 21.4986 14.4609 20.9857 13.7994C20.4729 13.1378 19.7549 12.6653 18.9444 12.4561" stroke="#FFD54F" stroke-opacity="0.69" stroke-width="1.41667" stroke-linecap="round" stroke-linejoin="round"/>
<path d="M15.1667 1.12256C15.9793 1.33062 16.6995 1.80322 17.2139 2.46585C17.7282 3.12848 18.0074 3.94345 18.0074 4.78228C18.0074 5.62111 17.7282 6.43608 17.2139 7.09871C16.6995 7.76134 15.9793 8.23394 15.1667 8.442" stroke="#FFD54F" stroke-opacity="0.69" stroke-width="1.41667" stroke-linecap="round" stroke-linejoin="round"/>
</svg>
