<svg width="26" height="28" viewBox="0 0 26 28" fill="none" xmlns="http://www.w3.org/2000/svg">
<path d="M21.8 12.7H3.6C2.16406 12.7 1 13.864 1 15.3V24.4C1 25.8359 2.16406 27 3.6 27H21.8C23.2359 27 24.4 25.8359 24.4 24.4V15.3C24.4 13.864 23.2359 12.7 21.8 12.7Z" stroke="black" stroke-width="1.5" stroke-linecap="round" stroke-linejoin="round"/>
<path d="M6.20001 12.7V7.5C6.20001 5.77609 6.88483 4.12279 8.10382 2.90381C9.3228 1.68482 10.9761 1 12.7 1C14.4239 1 16.0772 1.68482 17.2962 2.90381C18.5152 4.12279 19.2 5.77609 19.2 7.5V12.7" stroke="black" stroke-width="1.5" stroke-linecap="round" stroke-linejoin="round"/>
</svg>
