<svg width="30" height="30" viewBox="0 0 30 30" fill="none" xmlns="http://www.w3.org/2000/svg">
<path d="M22.8 22.8V20.9333C22.8 19.9431 22.4207 18.9936 21.7456 18.2934C21.0705 17.5933 20.1548 17.2 19.2 17.2H12C11.0452 17.2 10.1296 17.5933 9.45444 18.2934C8.77931 18.9936 8.40002 19.9431 8.40002 20.9333V22.8" stroke="black" stroke-width="1.79583" stroke-linecap="round" stroke-linejoin="round"/>
<path d="M15.6 13.4669C17.5883 13.4669 19.2 11.7954 19.2 9.73358C19.2 7.67171 17.5883 6.00024 15.6 6.00024C13.6118 6.00024 12 7.67171 12 9.73358C12 11.7954 13.6118 13.4669 15.6 13.4669Z" stroke="black" stroke-width="1.79583" stroke-linecap="round" stroke-linejoin="round"/>
<circle cx="15" cy="15" r="14.4643" stroke="black" stroke-width="1.07143"/>
</svg>
