<svg width="24" height="24" viewBox="0 0 24 24" fill="none" xmlns="http://www.w3.org/2000/svg">
<path d="M19.0406 1.8119C19.4755 1.37693 20.0655 1.13257 20.6806 1.13257C21.2958 1.13257 21.8857 1.37693 22.3207 1.8119C22.7556 2.24687 23 2.83681 23 3.45195C23 4.06709 22.7556 4.65703 22.3207 5.092L11.9337 15.479L7.56021 16.5724L8.65358 12.1989L19.0406 1.8119Z" stroke="black" stroke-width="1.64005" stroke-linecap="round" stroke-linejoin="round"/>
<path d="M10.8403 3.31934H3.18674C2.60678 3.31934 2.05057 3.54972 1.64048 3.95982C1.23039 4.36991 1 4.92611 1 5.50607V20.8132C1 21.3932 1.23039 21.9494 1.64048 22.3595C2.05057 22.7696 2.60678 23 3.18674 23H18.4939C19.0738 23 19.63 22.7696 20.0401 22.3595C20.4502 21.9494 20.6806 21.3932 20.6806 20.8132V13.1596" stroke="black" stroke-width="1.64005" stroke-linecap="round" stroke-linejoin="round"/>
</svg>
